<svg width="194" height="194" viewBox="0 0 194 194" fill="none" xmlns="http://www.w3.org/2000/svg">
<circle cx="97" cy="97" r="97" fill="#DBEAE1"/>
<path d="M64.4 76.9167C64.4 77.8872 64.0437 78.727 63.3312 79.4362C62.6187 80.1454 61.775 80.5 60.8 80.5C59.7875 80.5 58.9344 80.1454 58.2406 79.4362C57.5469 78.727 57.2 77.8872 57.2 76.9167C57.2 75.9089 57.5469 75.0597 58.2406 74.3691C58.9344 73.6786 59.7875 73.3333 60.8 73.3333C61.775 73.3333 62.6187 73.6786 63.3312 74.3691C64.0437 75.0597 64.4 75.9089 64.4 76.9167ZM73.4 105.583V69.75C73.4 68.7795 73.0437 67.9397 72.3312 67.2305C71.6187 66.5213 70.775 66.1667 69.8 66.1667H53.6C52.625 66.1667 51.7812 66.5213 51.0688 67.2305C50.3562 67.9397 50 68.7795 50 69.75V105.583C50 106.554 50.3562 107.394 51.0688 108.103C51.7812 108.812 52.625 109.167 53.6 109.167H69.8C70.775 109.167 71.6187 108.812 72.3312 108.103C73.0437 107.394 73.4 106.554 73.4 105.583ZM140 105.583C140 102.373 138.969 99.5924 136.906 97.2409C137.469 95.5985 137.75 94.1801 137.75 92.9857C137.862 90.1489 137.056 87.592 135.331 85.3151C135.969 83.2248 135.969 81.0412 135.331 78.7643C134.769 76.6367 133.756 74.8824 132.294 73.5013C132.631 69.3207 131.713 65.9427 129.537 63.3672C127.137 60.5304 123.444 59.0747 118.456 59H111.2C108.725 59 106.025 59.2893 103.1 59.8678C100.175 60.4464 97.8969 60.9876 96.2656 61.4915C94.6344 61.9954 92.375 62.7326 89.4875 63.7031C84.875 65.3082 81.9125 66.1293 80.6 66.1667C79.625 66.204 78.7812 66.5679 78.0687 67.2585C77.3562 67.949 77 68.7795 77 69.75V105.639C77 106.572 77.3375 107.384 78.0125 108.075C78.6875 108.765 79.4937 109.148 80.4312 109.223C81.3312 109.297 82.7562 110.398 84.7062 112.526C86.6562 114.654 88.55 116.912 90.3875 119.301C92.9375 122.548 94.8312 124.788 96.0687 126.02C96.7437 126.691 97.325 127.587 97.8125 128.707C98.3 129.827 98.6281 130.732 98.7969 131.423C98.9656 132.113 99.2188 133.242 99.5562 134.81C99.8187 136.266 100.053 137.404 100.259 138.225C100.466 139.046 100.831 140.017 101.356 141.137C101.881 142.257 102.519 143.19 103.269 143.936C103.981 144.645 104.825 145 105.8 145C107.525 145 109.072 144.804 110.441 144.412C111.809 144.02 112.934 143.535 113.816 142.956C114.697 142.378 115.447 141.622 116.066 140.689C116.684 139.756 117.134 138.916 117.416 138.169C117.697 137.423 117.922 136.49 118.091 135.37C118.259 134.25 118.353 133.41 118.372 132.85C118.391 132.29 118.4 131.562 118.4 130.667C118.4 129.248 118.222 127.83 117.866 126.411C117.509 124.993 117.153 123.873 116.797 123.052C116.441 122.231 115.925 121.186 115.25 119.917C115.137 119.693 114.95 119.357 114.688 118.909C114.425 118.461 114.219 118.05 114.069 117.677C113.919 117.304 113.769 116.856 113.619 116.333H129.2C132.125 116.333 134.656 115.27 136.794 113.142C138.931 111.014 140 108.495 140 105.583Z" fill="#1E8A49"/>
</svg>
