<svg width="194" height="194" viewBox="0 0 194 194" fill="none" xmlns="http://www.w3.org/2000/svg">
<circle cx="97" cy="97" r="97" fill="#DBEAE1"/>
<path d="M64.4 117.083C64.4 116.113 64.0437 115.273 63.3312 114.564C62.6187 113.855 61.775 113.5 60.8 113.5C59.7875 113.5 58.9344 113.855 58.2406 114.564C57.5469 115.273 57.2 116.113 57.2 117.083C57.2 118.091 57.5469 118.94 58.2406 119.631C58.9344 120.321 59.7875 120.667 60.8 120.667C61.775 120.667 62.6187 120.321 63.3312 119.631C64.0437 118.94 64.4 118.091 64.4 117.083ZM73.4 88.4167V124.25C73.4 125.22 73.0437 126.06 72.3312 126.77C71.6187 127.479 70.775 127.833 69.8 127.833H53.6C52.625 127.833 51.7812 127.479 51.0687 126.77C50.3562 126.06 50 125.22 50 124.25V88.4167C50 87.4462 50.3562 86.6063 51.0687 85.8971C51.7812 85.1879 52.625 84.8333 53.6 84.8333H69.8C70.775 84.8333 71.6187 85.1879 72.3312 85.8971C73.0437 86.6063 73.4 87.4462 73.4 88.4167ZM140 88.4167C140 91.6267 138.969 94.4076 136.906 96.7591C137.469 98.4015 137.75 99.8199 137.75 101.014C137.862 103.851 137.056 106.408 135.331 108.685C135.969 110.775 135.969 112.959 135.331 115.236C134.769 117.363 133.756 119.118 132.294 120.499C132.631 124.679 131.712 128.057 129.537 130.633C127.137 133.47 123.444 134.925 118.456 135H111.2C108.725 135 106.025 134.711 103.1 134.132C100.175 133.554 97.8969 133.012 96.2656 132.508C94.6344 132.005 92.375 131.267 89.4875 130.297C84.875 128.692 81.9125 127.871 80.6 127.833C79.625 127.796 78.7812 127.432 78.0687 126.742C77.3562 126.051 77 125.22 77 124.25V88.3607C77 87.4275 77.3375 86.6157 78.0125 85.9251C78.6875 85.2346 79.4937 84.852 80.4312 84.7773C81.3312 84.7027 82.7562 83.6016 84.7062 81.474C86.6562 79.3464 88.55 77.0881 90.3875 74.6992C92.9375 71.4518 94.8312 69.2122 96.0687 67.9805C96.7437 67.3086 97.325 66.4128 97.8125 65.293C98.3 64.1732 98.6281 63.268 98.7969 62.5775C98.9656 61.8869 99.2187 60.7578 99.5562 59.1901C99.8187 57.7344 100.053 56.5959 100.259 55.7747C100.466 54.9536 100.831 53.9831 101.356 52.8633C101.881 51.7435 102.519 50.8103 103.269 50.0638C103.981 49.3546 104.825 49 105.8 49C107.525 49 109.072 49.196 110.441 49.5879C111.809 49.9798 112.934 50.4651 113.816 51.0436C114.697 51.6222 115.447 52.378 116.066 53.3112C116.684 54.2444 117.134 55.0842 117.416 55.8307C117.697 56.5773 117.922 57.5104 118.091 58.6302C118.259 59.75 118.353 60.5898 118.372 61.1497C118.391 61.7096 118.4 62.4375 118.4 63.3333C118.4 64.7517 118.222 66.1701 117.866 67.5885C117.509 69.0069 117.153 70.1267 116.797 70.9479C116.441 71.7691 115.925 72.8142 115.25 74.0833C115.137 74.3073 114.95 74.6432 114.687 75.0911C114.425 75.5391 114.219 75.9497 114.069 76.3229C113.919 76.6962 113.769 77.1441 113.619 77.6667H129.2C132.125 77.6667 134.656 78.7305 136.794 80.8581C138.931 82.9857 140 85.5052 140 88.4167Z" fill="#1E8A49"/>
</svg>
