<?xml version="1.0" encoding="utf-8"?>
<!-- Generator: Adobe Illustrator 26.2.1, SVG Export Plug-In . SVG Version: 6.00 Build 0)  -->
<svg version="1.1" id="Layer_1" xmlns="http://www.w3.org/2000/svg" xmlns:xlink="http://www.w3.org/1999/xlink" x="0px" y="0px"
	 viewBox="0 0 375 426" style="enable-background:new 0 0 375 426;" xml:space="preserve">
<style type="text/css">
	.st0{fill-rule:evenodd;clip-rule:evenodd;fill:url(#SVGID_1_);}
	.st1{fill-rule:evenodd;clip-rule:evenodd;fill:#FFFFFF;filter:url(#Adobe_OpacityMaskFilter);}
	.st2{mask:url(#path-1-inside-1_575_1544_00000060002131025174706290000007832931485627855239_);fill:#1E8A49;}
	.st3{fill:none;stroke:#1E8A49;stroke-width:4;}
	.st4{fill:#FFFFFF;stroke:#1E8A49;stroke-width:4;}
	.st5{fill:#F14C4C;}
</style>
<linearGradient id="SVGID_1_" gradientUnits="userSpaceOnUse" x1="187.5" y1="428" x2="187.5" y2="-257" gradientTransform="matrix(1 0 0 -1 0 428)">
	<stop  offset="0" style="stop-color:#ABCAB7"/>
	<stop  offset="1" style="stop-color:#C4C4C4;stop-opacity:0"/>
</linearGradient>
<path class="st0" d="M375,426V121l-43-67l-43,62L210.5,15L191,35.3L159,0L55.5,132l-17-16L0,166.2V426H375z"/>
<defs>
	<filter id="Adobe_OpacityMaskFilter" filterUnits="userSpaceOnUse" x="-4" y="-6.2" width="383" height="436.2">
		<feColorMatrix  type="matrix" values="1 0 0 0 0  0 1 0 0 0  0 0 1 0 0  0 0 0 1 0"/>
	</filter>
</defs>
<mask maskUnits="userSpaceOnUse" x="-4" y="-6.2" width="383" height="436.2" id="path-1-inside-1_575_1544_00000060002131025174706290000007832931485627855239_">
	<path class="st1" d="M375,426V121l-43-67l-43,62L210.5,15L191,35.3L159,0L55.5,132l-17-16L0,166.2V426H375z"/>
</mask>
<path class="st2" d="M375,121h4v-1.2l-0.6-1L375,121z M375,426v4h4v-4H375z M332,54l3.4-2.2l-3.2-5l-3.4,4.9L332,54z M289,116
	l-3.2,2.5l3.3,4.3l3.1-4.5L289,116z M210.5,15l3.2-2.5l-2.8-3.7l-3.2,3.3L210.5,15z M191,35.3l-3,2.7l2.9,3.2l3-3.1L191,35.3z
	 M159,0l3-2.7l-3.2-3.5l-2.9,3.7L159,0z M55.5,132l-2.7,2.9l3.2,3l2.7-3.4L55.5,132z M38.5,116l2.7-2.9l-3.2-3l-2.7,3.5L38.5,116z
	 M0,166.2l-3.2-2.4l-0.8,1.1v1.4H0z M0,426h-4v4h4V426z M371,121v305h8V121H371z M328.6,56.1l43,67l6.7-4.3l-43-67L328.6,56.1z
	 M292.3,118.3l43-62l-6.6-4.6l-43,62L292.3,118.3z M207.3,17.4l78.5,101l6.3-4.9l-78.5-101L207.3,17.4z M193.9,38l19.5-20.3
	l-5.8-5.5l-19.5,20.3L193.9,38z M156,2.7L188,38l5.9-5.4L162-2.7L156,2.7z M58.6,134.5l103.5-132l-6.3-4.9l-103.5,132L58.6,134.5z
	 M35.8,118.9l17,16l5.5-5.8l-17-16L35.8,118.9z M3.2,168.6l38.5-50.2l-6.3-4.9l-38.5,50.2L3.2,168.6z M4,426V166.2h-8V426H4z M0,430
	h375v-8H0V430z"/>
<path class="st3" d="M37,379c92.5-24.8,278.3-85.1,281.5-127.5c4-53-171-11.5-171-56s106-10.5,106-38c0-33-100.5-2.5-100.5-42"/>
<circle class="st4" cx="44" cy="376" r="13"/>
<circle class="st4" cx="163" cy="340" r="13"/>
<circle class="st4" cx="319" cy="247" r="13"/>
<circle class="st4" cx="193" cy="217" r="13"/>
<circle class="st4" cx="157" cy="120" r="13"/>
<path class="st5" d="M193,160.8c-3.7,0-7.3,1.5-9.9,4.1c-2.6,2.7-4.1,6.2-4.1,10c0,3.1,1,6,2.8,8.5c0,0,0.4,0.5,0.4,0.6l10.7,12.8
	l10.7-12.8c0.1-0.1,0.4-0.6,0.4-0.6l0,0c1.8-2.4,2.8-5.4,2.8-8.5c0-3.8-1.5-7.3-4.1-10C200.3,162.3,196.7,160.8,193,160.8L193,160.8
	z M193,180.1c-1,0-2-0.3-2.8-0.9c-0.8-0.6-1.5-1.4-1.9-2.3s-0.5-2-0.3-3c0.2-1,0.7-1.9,1.4-2.6c0.7-0.7,1.6-1.2,2.6-1.4
	c1-0.2,2-0.1,2.9,0.3c0.9,0.4,1.7,1,2.3,1.9c0.6,0.8,0.9,1.8,0.9,2.9c0,1.4-0.5,2.7-1.5,3.6C195.6,179.5,194.3,180.1,193,180.1
	L193,180.1z"/>
<circle class="st5" cx="44" cy="376" r="6"/>
<circle class="st5" cx="193" cy="217" r="6"/>
<circle class="st5" cx="319" cy="247.2" r="6"/>
<circle class="st5" cx="163" cy="340" r="6"/>
</svg>
