<svg xmlns="http://www.w3.org/2000/svg" width="194" height="194" fill="none" xmlns:v="https://vecta.io/nano"><circle cx="97" cy="97" r="97" fill="#dbeae1"/><path d="M97.032 168.5c-35.46 0-54.04-27-54.04-27-.287 0-.585-.284-.585-.546-.289.009-.403-.077-.386-.361.011-.177-.017-.357-.017-.534v-12.551a4.95 4.95 0 0 1 .026-.693c.015-.098.112-.254.185-.263.278-.034.289-.201.295-.414 0-.535.041-1.069.063-1.602 0-.147 0-.303.216-.31.276 0 .311-.177.311-.395 0-.159.034-.317.041-.477s.075-.314.28-.317c.246 0 .291-.145.289-.35 0-.141.054-.285.039-.428-.039-.383.315-.25.47-.374s-.073-.517.276-.558c.237-.026.349-.103.369-.351.017-.052.047-.099.088-.137a.32.32 0 0 1 .145-.076c.296 0 .375-.124.362-.385 0-.06.045-.174.082-.178.315-.04.52-.175.535-.517 0-.03.086-.081.127-.077.304.025.485-.073.461-.409 0-.027.03-.085.047-.085.384 0 .47-.291.647-.541.112-.15.459-.143.705-.177.166-.024.276-.058.27-.248 0-.052 0-.135.026-.154.177-.107.477-.163.524-.306.082-.244.119-.438.431-.428.018.003.036.003.054 0 .311-.049.084-.404.289-.504s.483.07.528-.242c.037-.254.172-.31.395-.327a1.02 1.02 0 0 0 .513-.126c.132-.103.147-.342.272-.46s.431-.115.444-.186c.03-.357.216-.445.53-.438a.16.16 0 0 0 .07-.029c.02-.015.036-.036.047-.059.03-.524.489-.427.789-.509.216-.06.369-.06.377-.331.013-.372.408-.118.539-.295s-.037-.456.315-.462a3.36 3.36 0 0 0 .58-.103.89.89 0 0 0 .196-.055c-.062-.509.61-.351.662-.708.039-.269.166-.306.39-.316.179.003.356-.037.515-.118.287-.19.431-.577.822-.641.013-.304.157-.449.479-.428.056 0 .179-.098.179-.152 0-.34.216-.344.466-.359.125 0 .248-.051.371-.056.192 0 .315-.072.308-.278 0-.243.14-.29.347-.297.161-.006.321-.03.477-.072.086-.024.216-.101.226-.161.017-.28.16-.372.421-.355.172.013.276-.062.272-.243 0-.244.142-.287.345-.3.16 0 .315-.087.472-.085.343 0 .201-.347.358-.447s.531-.137.533-.214c0-.408.289-.37.55-.417s.681 0 .679-.483c0-.039.175-.077.269-.113s.313-.077.317-.129c.043-.476.431-.41.716-.444.227-.026.431 0 .431-.328 0-.07.151-.173.25-.2a2.43 2.43 0 0 1 .58-.097c.198-.01.304-.077.3-.284s.101-.244.272-.246.321-.038.483-.043.315-.036.336-.254c0-.079.065-.214.112-.214.334-.041.647-.094.628-.532 0-.03.153-.075.237-.088.195-.028.392-.045.589-.051.17 0 .28-.058.27-.244-.013-.254.147-.284.347-.284.145 0 .287-.035.431-.037.181 0 .323-.04.332-.256 0-.263.179-.31.401-.312.143-.027.287-.046.431-.056.382.047.233-.355.41-.451s.546-.111.552-.184c.05-.552.487-.379.772-.428.25-.042.455-.047.461-.376 0-.071.153-.162.252-.195.14-.04.286-.057.431-.051.248 0 .47 0 .485-.34 0-.062.134-.145.216-.171a1.49 1.49 0 0 1 .431-.045c.25 0 .468 0 .481-.344 0-.064.134-.156.216-.175a4.19 4.19 0 0 1 .636-.092c.164 0 .285-.053.28-.242 0-.248.153-.291.354-.282.018.002.036.002.054 0 .755-.075.772-.075.774-.817v-8.172c0-.158-.032-.319-.032-.479s-.069-.269-.246-.276c-.257 0-.334-.154-.334-.387 0-.158-.045-.317-.054-.475s-.045-.28-.237-.289c-.244 0-.276-.173-.276-.37 0-.158-.03-.319-.026-.479 0-.201-.032-.351-.282-.355-.185 0-.233-.128-.237-.289a5.33 5.33 0 0 0-.039-.641c-.013-.096-.052-.25-.117-.272-.47-.158-.418-.56-.455-.915-.035-.316-.047-.641-.06-.958 0-.173-.03-.321-.248-.34s-.248-.158-.252-.338l-.052-1.653c0-.169 0-.331-.233-.344s-.267-.184-.276-.376c-.017-.355-.054-.708-.069-1.069 0-.184-.06-.31-.274-.312s-.323-.115-.317-.336c0-.15-.065-.235-.216-.227h-.054c-.72-.113-.776-.105-.876-.834-.054-.402-.494-.188-.541-.475-.037-.229.069-.52-.321-.567-.078 0-.173-.163-.196-.263-.07-.311-.122-.626-.155-.943-.022-.195-.037-.351-.287-.359-.19 0-.216-.15-.216-.304s-.03-.355-.024-.532c0-.225-.03-.381-.308-.385-.203 0-.19-.173-.201-.314-.028-.372-.05-.746-.095-1.116-.013-.109-.082-.289-.151-.299-.326-.06-.317-.312-.341-.532-.047-.477-.062-.956-.108-1.435-.011-.105-.088-.289-.142-.291-.382-.019-.343-.28-.349-.53l-.056-2.027c0-.124-.075-.344-.136-.351-.38-.041-.334-.31-.336-.552 0-.445-.015-.889 0-1.334 0-.122.084-.336.153-.346.33-.051.328-.261.326-.505 0-.284.03-.569.032-.855s-.015-.483.364-.52c.106 0 .157-.344.28-.49s.483.066.49-.197c.011-.475.315-.428.617-.443s.576 0 .863-.043c.053-.008.104-.028.148-.059a.35.35 0 0 0 .106-.118c.05-.16.019-.329-.216-.327s-.28-.158-.291-.353a26.09 26.09 0 0 0-.088-1.069c-.013-.118-.026-.312-.093-.338-.496-.192-.416-.622-.431-.994l-.052-4.704c0-1.052.026-2.102.05-3.151.011-.216.04-.43.086-.641.015-.083.052-.214.097-.229.431-.073.321-.404.347-.667.043-.44.067-.885.121-1.326.011-.107.093-.284.157-.291.377-.036.33-.297.339-.545s.035-.532.047-.797c0-.214.024-.391.3-.428.179-.015.216-.16.216-.314a2.44 2.44 0 0 1 .084-.577c.018-.062.049-.119.09-.168a.47.47 0 0 1 .151-.118c.216-.062.272-.19.272-.391.004-.177.022-.354.054-.528.013-.077.073-.214.112-.214.431 0 .367-.306.431-.582.054-.242 0-.609.431-.641.041 0 .11-.107.108-.162-.011-.331.127-.496.475-.49.041 0 .106-.124.123-.197a2.53 2.53 0 0 0 .06-.475c0-.197.037-.353.285-.355.179 0 .254-.12.252-.282 0-.224.05-.387.326-.368.216.015.274-.124.267-.308s.071-.274.255-.265c.242.013.313-.113.3-.329s.097-.293.293-.289.259-.094.257-.263c0-.242.142-.308.349-.291s.28-.103.267-.293.082-.336.311-.334a.22.22 0 0 0 .054 0c.311-.047.088-.398.291-.505.166-.088.466.041.472-.31 0-.1.108-.278.179-.282.302-.026.459-.15.446-.46a1.1 1.1 0 0 0 .444-.249c.126-.116.223-.26.283-.421 0-.023.103-.017.155-.013.198.013.313-.056.293-.269s.08-.334.308-.329a.24.24 0 0 0 .107-.006c.035-.01.067-.028.093-.053s.047-.054.06-.088.018-.07.015-.105c0-.231.142-.293.354-.295.159 0 .319-.049.481-.055s.278-.051.274-.242c0-.053 0-.139.026-.154.192-.096.457-.13.571-.28s.047-.464.401-.447c.08 0 .237-.096.235-.148 0-.37.25-.368.507-.383.125 0 .248-.038.373-.036.177 0 .276-.066.265-.25-.017-.261.127-.331.362-.342.095 0 .244-.062.267-.128.145-.413.507-.393.835-.441.145-.019.311 0 .306-.214 0-.278.162-.31.382-.314a2.64 2.64 0 0 0 .535-.053c.093-.019.244-.094.244-.148 0-.336.252-.34.483-.368.319-.041.647-.079.957-.103.166 0 .283-.051.28-.239s.125-.261.313-.265c.36 0 .718-.034 1.078-.039.201 0 .358-.021.367-.271s.179-.231.347-.237l2.474-.118c.267-.015.589.066.684-.342.015-.064.216-.126.317-.126h4.744c.272 0 .632-.026.753.376.019.06.215.083.338.09l2.202.118c.216 0 .392.038.405.308 0 .199.164.199.313.214l1.13.043c.157 0 .296.03.296.214 0 .25.157.265.355.282.356.028.712.075 1.063.133.091.015.244.094.244.145 0 .389.28.34.531.353a1.64 1.64 0 0 1 .431.056c.095.034.229.13.237.214.024.233.14.282.352.299.118 0 .319.107.327.18.033.304.235.314.455.336.126.013.248.043.371.051.164 0 .296.058.279.244-.028.308.148.346.394.34a2.89 2.89 0 0 1 .431.047c.054 0 .136-.011.156.017.112.158.172.378.319.481s.453 0 .431.331c0 .201.102.295.3.284s.328.092.326.316c0 .385.403.13.517.319s-.056.507.343.483c.088 0 .254.073.263.128.041.31.127.541.507.513.026 0 .086.079.082.118-.03.323.127.445.431.46.048 0 .091.165.127.257s.056.278.095.282c.509.043.481.466.537.78.045.256.14.319.375.327.358.011.716.056 1.079.081.164 0 .282.069.278.25 0 .246.138.289.347.284.16 0 .321.032.481.028.216 0 .349.062.343.297a.24.24 0 0 0 0 .054c.064.308.392.092.526.259s-.03.475.323.457a.6.6 0 0 1 .108.013.85.85 0 0 1 .579.265c.151.16.234.371.23.59 0 .036-.011.09 0 .105.175.141.446.244.509.428.082.229.069.44.403.428.201-.015.179.167.216.304s.112.323.183.329c.345.026.332.265.354.492s.028.389.045.584c.024.257-.024.556.395.556.062 0 .157.178.176.282.039.227.02.464.061.691.017.098.116.246.196.257.272.043.293.214.3.428.013.515.03 1.031.065 1.546 0 .107.081.295.135.297.386.028.339.304.343.543l.059 3.523-.059 6.461c0 .237.015.462-.323.509-.067 0-.143.214-.147.344-.03.729-.039 1.458-.056 2.187.005.196-.005.392-.03.586-.017.1-.108.257-.181.265-.281.034-.289.214-.294.428 0 .284-.023.569-.043.855s-.015.509.356.513c.045 0 .125.051.127.081.018.331.164.52.52.524.035 0 .08.143.099.214.043.19.065.385.112.573.02.077.076.201.123.214.432.041.38.357.38.641v3.849c-.006.178-.027.355-.06.53-.016.081-.05.214-.095.231-.505.098-.335.53-.399.819a6.39 6.39 0 0 0-.05.958c-.017.282.08.641-.401.667-.041 0-.097.171-.104.265l-.09 1.599c0 .1-.097.278-.16.282-.338.021-.336.239-.347.485s-.056.528-.088.791c-.03.214-.024.472-.367.481-.056 0-.138.145-.155.233a2.71 2.71 0 0 0-.035.532c0 .235-.023.428-.334.428-.062 0-.149.126-.179.214-.022.104-.033.21-.032.316-.032.101-.053.206-.061.312.037.406-.431.194-.511.428s.063.543-.349.532h-.052c-.068.182-.163.353-.282.507-.13.12-.464-.051-.468.297 0 .248-.171.276-.367.276-.36 0-.718.015-1.078 0-.239 0-.377.062-.367.327 0 .141-.026.284-.023.428 0 .214-.028.385-.304.398-.216.011-.182.184-.186.323l-.06 1.655c0 .177-.043.321-.25.344s-.24.162-.251.338c-.023.372-.066.744-.094 1.116 0 .16-.063.284-.249.282-.25 0-.275.15-.28.351 0 .355-.041.71-.054 1.069 0 .165-.047.282-.239.28-.257 0-.274.167-.276.361 0 .158-.03.319-.032.479 0 .195-.031.357-.281.363-.192 0-.228.139-.231.293v.481 8.385c0 .287-.086.642.386.661.026.008.048.022.066.041s.03.043.036.068c-.03.428.287.379.56.447.233.056.561.032.613.406 0 .051.172.094.269.118.188.06.382.095.578.105.343 0 .197.353.367.438s.55.114.556.186c.041.511.432.385.716.428s.511 0 .531.363c0 .062.14.141.228.167a2.54 2.54 0 0 0 .527.092c.179.013.327.036.323.259s.157.276.356.273c.142 0 .287.035.431.032.229 0 .375.041.388.315 0 .072.143.175.238.214.171.049.347.079.526.087.215.015.384.045.399.321 0 .073.146.175.241.201a2.59 2.59 0 0 0 .533.064c.157 0 .284.043.295.231.013.237.166.291.369.282s.33.034.326.252.12.27.306.285.317.075.476.077c.229 0 .374.053.384.323 0 .072.143.177.235.213a3.81 3.81 0 0 0 .533.058c.071 0 .194.017.198.043.078.428.412.498.753.571.129.528.569.489.973.539.045.014.087.039.12.074s.057.076.069.122c-.01.321.203.293.421.338.287.06.664 0 .744.458.015.085.366.077.498.188s.132.385.261.457c.203.07.418.095.632.075.198 0 .364.028.358.28 0 .18.09.242.263.261.179.005.355.046.517.12.317.182.481.601.93.579-.054.575.431.428.731.531.216.072.468.064.459.393 0 .047.091.135.14.132.298 0 .479.09.473.428 0 .043.12.111.194.126a2.72 2.72 0 0 0 .532.062c.229 0 .382.052.382.321 0 .19.166.184.306.214s.304.13.309.214c.013.325.194.374.459.369.125-.002.25.02.367.067.099.04.239.124.248.201.028.261.174.327.401.323h.054c.351.027.125.427.334.53s.517-.066.496.327c-.011.184.097.242.269.246s.32.051.481.049c.231 0 .369.056.378.323.01.336.343.16.498.278s-.033.489.28.509.485.064.485.406c0 .043.123.109.197.128.173.042.35.069.528.081.19 0 .313.071.313.278s.129.315.347.304c.162 0 .289.047.278.237-.011.227.088.317.319.312.093 0 .265.065.268.112.041.53.502.427.804.508.198.06.33.101.321.33 0 .194.121.239.283.231.215-.013.349.053.345.293 0 .177.099.239.272.256.094 0 .265.071.267.111 0 .342.188.46.5.475.056 0 .158.083.156.126-.013.505.398.415.681.462.229.038.431.034.407.346 0 .06.059.18.08.178.479-.045.412.53.699.618s.431.104.412.41c0 .075.108.214.172.214.326 0 .356.229.386.466a1.72 1.72 0 0 0 .054.417c.035.081.128.192.197.195.267 0 .329.151.327.38a2.1 2.1 0 0 0 .05.53c.024.097.119.251.185.251.328 0 .311.213.322.427a9.58 9.58 0 0 0 .075.855c.028.201.015.428.319.486.065 0 .132.192.143.301.036.353.062.71.064 1.069v13.243c0 1.204.08.973-.983.973-.017.017-18.517 27.518-53.977 27.518zm.824-123.84h-1.4c-.116 0-.319.092-.33.163-.043.316-.261.289-.477.299l-2.096.115c-.123 0-.33.081-.345.154-.054.265-.233.282-.431.304-.321.034-.647.083-.96.103-.198.013-.358.028-.356.28 0 .188-.123.233-.287.237s-.358.038-.535.036-.36.036-.341.287-.136.291-.343.295-.354.049-.533.056-.272.071-.267.252c.013.395-.341.201-.505.31s.041.511-.336.513h-.054c-.192 0-.315.081-.306.284.015.331-.276.237-.431.342s-.181.334-.272.505c-.011.017-.069.017-.104.015-.231-.013-.326.096-.315.321 0 .184-.06.323-.272.314-.267-.013-.336.122-.33.361.005.16-.014.319-.058.473-.024.085-.112.214-.175.214-.349 0-.298.246-.352.475-.067.274.058.682-.431.757-.058 0-.112.203-.125.314-.041.372-.054.746-.097 1.116-.013.109-.08.295-.14.304-.403.049-.347.338-.349.596l.013 1.388c0 .092.112.255.177.257.319.011.293.214.343.428.067.297-.013.716.496.746.05 0 .134.133.129.201-.017.297.14.357.397.351a1.57 1.57 0 0 1 .479.053c.101.028.263.113.267.182.026.31.216.319.455.321a9.02 9.02 0 0 0 1.02.017c.326-.032.806.163.847-.428.414-.023.576-.374.845-.596.144-.122.332-.145.315-.387 0-.16.041-.289.231-.289.241 0 .291-.135.295-.344 0-.282.034-.566.071-.855.03-.235 0-.517.371-.549.047 0 .108-.13.123-.214a2.6 2.6 0 0 0 .063-.53c0-.261.034-.455.364-.466.056 0 .136-.143.153-.229.037-.19.021-.391.063-.581.024-.103.11-.272.177-.276.328-.026.313-.261.382-.481.084-.267 0-.684.507-.658.034 0 .108-.107.103-.163-.019-.323.192-.342.431-.402.278-.068.679-.023.694-.492 0-.036.147-.088.216-.096.216-.019.431-.026.647-.026s.367 0 .382-.259c0-.188.142-.224.3-.224h2.853c.055.009.107.031.151.065s.078.079.1.13c.024.286.216.284.416.282s.358.017.537.021.293.038.291.231c0 .25.153.276.352.282.142 0 .284.064.431.056.474-.026.297.782.852.641.03.04.05.086.06.135.013.071-.011.152.019.214s.113.214.179.214c.287.021.341.192.361.428.023.282.09.56.116.842.017.192.034.34.276.383a.33.33 0 0 1 .159.112c.041.052.065.115.07.181.015.605.01 1.21 0 1.813a.33.33 0 0 1-.068.148c-.035.043-.08.077-.131.098-.278.019-.306.186-.315.4 0 .141-.054.282-.058.428 0 .214-.041.381-.317.389-.075 0-.216.113-.216.171 0 .295-.073.483-.407.494-.039 0-.112.06-.112.094 0 .295-.132.466-.453.472-.041 0-.114.094-.119.15a.33.33 0 0 1-.021.158c-.019.05-.051.095-.091.131s-.09.061-.143.075-.108.014-.161.002c-.062 0-.183.041-.185.064 0 .353-.156.558-.531.573-.022 0-.056.049-.062.079-.043.237-.084.447-.418.428-.386-.017-.121.396-.313.515-.031.018-.067.027-.103.026-.261-.015-.407.077-.399.363 0 .069-.084.195-.134.197-.311.017-.52.113-.49.47-.384.062-.487.477-.733.62s-.431.214-.468.519c-.013.083-.33.092-.431.201s-.129.455-.216.47c-.31.047-.431.162-.431.477 0 .066-.162.179-.261.197-.071.005-.138.037-.186.089s-.072.122-.069.193c-.017.158-.078.312-.084.468 0 .214-.065.344-.304.342-.188 0-.237.12-.235.284 0 .105 0 .214-.017.319-.024.291.041.624-.399.695-.052 0-.103.171-.112.267a23.31 23.31 0 0 0-.035 4.475c.017.184.06.31.276.306s.244.141.267.316c.052.37.727.214.647.725.075.037.157.059.242.064l2.631.017c.257 0 .505-.017.531-.376 0-.066.179-.169.276-.173.242 0 .306-.116.302-.331-.003-.16.016-.32.058-.475.021-.088.097-.227.159-.231.336-.032.337-.252.337-.496a4.51 4.51 0 0 1 .043-.746c.045-.254-.03-.599.39-.661.05 0 .097-.175.108-.274.039-.37.067-.742.09-1.114.011-.163.048-.287.242-.278.241.013.308-.118.297-.329 0-.154.033-.308.216-.314.272 0 .265-.197.345-.38.112-.265.015-.729.541-.699.035 0 .113-.105.11-.158-.013-.293.184-.31.401-.385.285-.098.706-.075.725-.549 0-.034.114-.098.17-.094.313.03.289-.235.432-.381.227-.285.496-.534.798-.74.215-.124.383-.16.379-.428a.19.19 0 0 1 .132-.13c.327.021.431-.135.446-.443 0-.062.183-.173.278-.171.386.013.259-.301.352-.481s.535.068.517-.312.341-.265.516-.389-.022-.573.431-.554c.358.017.16-.327.263-.483s.511.041.509-.342c0-.154.08-.308.093-.464.021-.237.073-.428.373-.408.038-.013.073-.035.1-.065s.046-.066.055-.106c-.015-.314.08-.511.431-.541.041 0 .089-.175.097-.274l.123-1.486c.018-.194.022-.385.283-.455.073-.019.142-.192.146-.297.02-.462.022-.926.018-1.388 0-.269.086-.584-.315-.697-.056-.015-.089-.184-.099-.284a37.99 37.99 0 0 1-.117-1.432c-.015-.25.03-.511-.353-.522-.056 0-.136-.148-.151-.233-.037-.214-.028-.428-.063-.641-.015-.088-.099-.237-.147-.235-.37.017-.377-.244-.411-.492-.022-.158-.054-.314-.074-.47-.041-.304-.362-.103-.461-.25s-.125-.466-.216-.477c-.317-.038-.431-.165-.448-.468 0-.062-.184-.152-.289-.165-.199-.021-.296-.103-.287-.301s-.127-.267-.311-.257-.282-.056-.269-.244c.015-.248-.132-.289-.339-.291-.123 0-.246-.06-.369-.071-.245-.019-.465-.047-.457-.381 0-.056-.134-.143-.215-.165-.142-.028-.287-.041-.432-.041-.248-.015-.519.019-.522-.363 0-.051-.146-.137-.235-.15-.215-.024-.43-.037-.647-.038-.153 0-.304-.021-.319-.214-.017-.237-.162-.276-.362-.286l-2.157-.139c-.127-.011-.347-.077-.356-.141-.052-.361-.304-.334-.556-.334l-1.199-.007zm-4.634 34.53h.019v1.283c0 .246 0 .464.349.457.063 0 .138.133.183.214s0 .141.024.214c.06.276.362.118.477.248s.153.455.242.462c.339.023.522.139.572.481 0 .041.188.081.287.083l2.803.034c.181 0 .326-.045.334-.257s.131-.263.319-.265c.142 0 .285-.051.431-.047.216 0 .334-.073.323-.304-.007-.035-.006-.072.004-.107s.027-.067.051-.094.054-.048.088-.062a.24.24 0 0 1 .107-.017c.302 0 .321-.175.358-.41.047-.291-.108-.731.444-.748.037 0 .095-.175.097-.272l.015-1.653c0-.214-.028-.378-.299-.408-.076 0-.162-.158-.19-.259a1.62 1.62 0 0 1-.059-.475c0-.227-.062-.363-.316-.406-.053-.02-.101-.053-.139-.095s-.064-.094-.077-.149c-.032-.214-.132-.314-.351-.299-.166.011-.287-.043-.276-.235.013-.244-.129-.274-.336-.297a15.14 15.14 0 0 0-3.379 0c-.216.026-.371.056-.386.321-.019.051-.051.096-.092.131a.32.32 0 0 1-.145.07c-.328-.019-.27.235-.373.404s-.356.227-.522.361c-.05.038-.013.173-.039.255s-.08.156-.119.154c-.502-.021-.397.346-.408.624-.032.351-.022.708-.022 1.063z" fill="#1e8a49"/></svg>